<svg xmlns="http://www.w3.org/2000/svg" viewBox="0 0 180 180">
  <defs>
    <linearGradient id="g" x1="0%" y1="0%" x2="100%" y2="100%">
      <stop offset="0%" style="stop-color:#6366f1"/>
      <stop offset="100%" style="stop-color:#4f46e5"/>
    </linearGradient>
  </defs>
  <rect width="180" height="180" rx="36" fill="url(#g)"/>
  <!-- Microphone capsule (scaled to 180x180) -->
  <rect x="22" y="105" width="28" height="46" rx="14" fill="white"/>
  <!-- Mic stand curve -->
  <path d="M22 126v7c0 15 13 28 28 28h0c15 0 28-13 28-28v-7h-11v7c0 9-8 17-17 17h0c-9 0-17-8-17-17v-7h-11z" fill="white"/>
  <rect x="29" y="161" width="14" height="6" rx="2" fill="white"/>
  <rect x="22" y="165" width="28" height="4" rx="2" fill="white"/>
  <!-- Curved waves -->
  <!-- Wave 1 -->
  <circle cx="70" cy="105" r="6" fill="white"/>
  <path d="M78 105q21-10 42 0" stroke="white" stroke-width="6" stroke-linecap="round" fill="none"/>
  <!-- Wave 2 -->
  <circle cx="91" cy="70" r="6" fill="white"/>
  <path d="M99 70q25-12 50 0" stroke="white" stroke-width="6" stroke-linecap="round" fill="none"/>
  <!-- Wave 3 -->
  <circle cx="112" cy="35" r="6" fill="white"/>
  <path d="M120 35q18-9 36 0" stroke="white" stroke-width="6" stroke-linecap="round" fill="none"/>
</svg>
