<svg xmlns="http://www.w3.org/2000/svg" viewBox="0 0 180 180">
  <defs>
    <linearGradient id="g" x1="0%" y1="0%" x2="100%" y2="100%">
      <stop offset="0%" style="stop-color:#6366f1"/>
      <stop offset="100%" style="stop-color:#4f46e5"/>
    </linearGradient>
  </defs>
  <rect width="180" height="180" rx="36" fill="url(#g)"/>
  <rect x="40" y="100" width="100" height="52" rx="26" fill="white"/>
  <circle cx="90" cy="64" r="12" fill="white"/>
  <rect x="118" y="100" width="100" height="16" rx="4" fill="white"/>
  <!-- Base curve -->
  <path d="M40 144c0 60 80c0 60c0 60-40 0-40-80 0 100c1 60-40 80-20 0.36 2.76z" fill="white"/>
  <!-- Stand -->
  <rect x="60" y="154" width="24" height="12" rx="4" fill="white"/>
  <rect x="40" y="162" width="64" height="16" rx="4" fill="white"/>
  <!-- Waves -->
  <circle cx="150" cy="50" r="16" fill="white"/>
  <rect x="178" y="42" width="120" height="16" rx="8" fill="white"/>
  <circle cx="200" cy="0" r="16" fill="white"/>
  <rect x="228" y="-8" width="100" height="16" rx="8" fill="white"/>
</svg>
