<svg xmlns="http://www.w3.org/2000/svg" viewBox="0 0 512 512">
  <defs>
    <linearGradient id="g" x1="0%" y1="0%" x2="100%" y2="100%">
      <stop offset="0%" style="stop-color:#6366f1"/>
      <stop offset="100%" style="stop-color:#4f46e5"/>
    </linearGradient>
  </defs>
  <rect width="512" height="512" rx="108" fill="url(#g)"/>
  <!-- Microphone capsule (bottom-left) -->
  <rect x="64" y="300" width="80" height="130" rx="40" fill="white"/>
  <!-- Mic stand curve -->
  <path d="M64 360v20c0 44 36 80 80 80h0c44 0 80-36 80-80v-20h-32v20c0 26-22 48-48 48h0c-26 0-48-22-48-48v-20h-32z" fill="white"/>
  <rect x="84" y="460" width="40" height="16" rx="4" fill="white"/>
  <rect x="64" y="472" width="80" height="12" rx="4" fill="white"/>
  <!-- Curved sound waves (task lines) -->
  <!-- Wave 1 -->
  <circle cx="200" cy="300" r="18" fill="white"/>
  <path d="M224 300q60-30 120 0" stroke="white" stroke-width="16" stroke-linecap="round" fill="none"/>
  <!-- Wave 2 -->
  <circle cx="260" cy="200" r="18" fill="white"/>
  <path d="M284 200q70-35 140 0" stroke="white" stroke-width="16" stroke-linecap="round" fill="none"/>
  <!-- Wave 3 -->
  <circle cx="320" cy="100" r="18" fill="white"/>
  <path d="M344 100q50-25 100 0" stroke="white" stroke-width="16" stroke-linecap="round" fill="none"/>
</svg>
