<svg xmlns="http://www.w3.org/2000/svg" viewBox="0 0 512 512">
  <defs>
    <linearGradient id="g" x1="0%" y1="0%" x2="100%" y2="100%">
      <stop offset="0%" style="stop-color:#6366f1"/>
      <stop offset="100%" style="stop-color:#4f46e5"/>
    </linearGradient>
  </defs>
  <rect width="512" height="512" rx="108" fill="url(#g)"/>
  <!-- Microphone (bottom-left) -->
  <rect x="64" y="280" width="100" height="150" rx="50" fill="white"/>
  <!-- Base stand curve -->
  <path d="M64 340v30c0 55 44 100 100h0c55 0 100-44 100v-30h-40v30c0 33-28 67-60 60h0c-33 0-60-60v-30h-40z" fill="white"/>
  <!-- Mic stand bar -->
  <rect x="84" y="480" width="60" height="20" rx="6" fill="white"/>
  <!-- Sound waves as task lines (diagonal up-right) -->
  <!-- Wave 1 -->
  <circle cx="200" cy="280" r="20" fill="white"/>
  <rect x="228" y="272" width="120" height="16" rx="8" fill="white"/>
  <!-- Wave 2 -->
  <circle cx="260" cy="180" r="20" fill="white"/>
  <rect x="288" y="172" width="140" height="16" rx="8" fill="white"/>
  <!-- Wave 3 -->
  <circle cx="320" cy="80" r="20" fill="white"/>
  <rect x="348" y="72" width="100" height="16" rx="8" fill="white"/>
</svg>
