<svg xmlns="http://www.w3.org/2000/svg" viewBox="0 0 512 512">
  <defs>
    <linearGradient id="g" x1="0%" y1="0%" x2="100%" y2="100%">
      <stop offset="0%" style="stop-color:#6366f1"/>
      <stop offset="100%" style="stop-color:#4f46e5"/>
    </linearGradient>
  </defs>
  <rect width="512" height="512" rx="108" fill="url(#g)"/>
  <!-- Microphone head (bottom-left corner, peeking up) -->
  <rect x="56" y="280" width="120" height="176" rx="60" fill="white"/>
  <!-- Mic base curve -->
  <path d="M56 320v48c0 66 54 120 120 120h0c66 0 120-54 120-120v-48h-48v48c0 40-32 72-72 72h0c-40 0-72-32-72-72v-48h-48z" fill="white"/>
  <!-- Mic stand -->
  <rect x="116" y="488" width="40" height="24" rx="6" fill="white"/>
  <rect x="76" y="504" width="120" height="20" rx="6" fill="white"/>
  <!-- Sound waves as task lines (diagonal up-right) -->
  <!-- Wave 1 (closest) -->
  <circle cx="224" cy="320" r="16" fill="white"/>
  <rect x="248" y="312" width="96" height="16" rx="8" fill="white"/>
  <!-- Wave 2 -->
  <circle cx="280" cy="224" r="16" fill="white"/>
  <rect x="304" y="216" width="112" height="16" rx="8" fill="white"/>
  <!-- Wave 3 (furthest) -->
  <circle cx="336" cy="128" r="16" fill="white"/>
  <rect x="360" y="120" width="96" height="16" rx="8" fill="white"/>
</svg>
