<svg xmlns="http://www.w3.org/2000/svg" viewBox="0 0 512 512">
  <defs>
    <linearGradient id="grad1" x1="0%" y1="0%" x2="100%" y2="100%">
      <stop offset="0%" style="stop-color:#6366f1"/>
      <stop offset="100%" style="stop-color:#4f46e5"/>
    </linearGradient>
  </defs>
  <rect width="512" height="512" rx="108" fill="url(#grad1)"/>
  <!-- Microphone -->
  <rect x="168" y="80" width="80" height="144" rx="40" fill="white"/>
  <path d="M120 224v24c0 52 42 94 94 94h28c52 0 94-42 94-94v-24h-40v24c0 30-24 54-54 54h-28c-30 0-54-24-54-54v-24h-40z" fill="white"/>
  <rect x="192" y="342" width="32" height="32" rx="6" fill="white"/>
  <rect x="160" y="366" width="96" height="18" rx="6" fill="white"/>
  <!-- Checklist -->
  <rect x="272" y="200" width="144" height="180" rx="12" fill="white"/>
  <path d="M296 240l16 16 32-32" stroke="#4f46e5" stroke-width="12" stroke-linecap="round" stroke-linejoin="round" fill="none"/>
  <path d="M296 290l16 16 32-32" stroke="#4f46e5" stroke-width="12" stroke-linecap="round" stroke-linejoin="round" fill="none"/>
  <path d="M296 340l16 16 32-32" stroke="#4f46e5" stroke-width="12" stroke-linecap="round" stroke-linejoin="round" fill="none"/>
  <line x1="360" y1="240" x2="392" y2="240" stroke="#4f46e5" stroke-width="10" stroke-linecap="round"/>
  <line x1="360" y1="290" x2="392" y2="290" stroke="#4f46e5" stroke-width="10" stroke-linecap="round"/>
  <line x1="360" y1="340" x2="392" y2="340" stroke="#4f46e5" stroke-width="10" stroke-linecap="round"/>
</svg>
